<svg xmlns="http://www.w3.org/2000/svg" viewBox="0 0 500 500" xmlns:v="https://vecta.io/nano"><style><![CDATA[.B{stroke:#263238}.C{stroke-linejoin:round}.D{fill:#263238}.E{fill:#fff}.F{fill:none}.G{fill:#5e5e5e}.H{stroke-linecap:round}.I{stroke:#5e5e5e}.J{stroke-miterlimit:10}]]></style><use href="#B" transform-origin="245.204px 252.137px" class="G"/><g class="E"><use href="#B" opacity=".7" transform-origin="245.204px 252.137px"/><path d="M308.47 124.33h108.08v147.06H308.47z" transform-origin="362.51px 197.86px" transform="rotate(90.03)"/><g class="B C"><path d="M415.28 235.73s-6.74-8-25.68-10-11.66 5.76 1 12.48 24.68-2.48 24.68-2.48z" transform-origin="396.666px 233.038px"/><path d="M413.66 210c-3.4-16.56 2.82-24.45 2.82-24.45s10.69 8.2 12.19 20.45a41.9 41.9 0 0 1-3.76 22.29s-7.85-1.73-11.25-18.29z" transform-origin="420.774px 206.92px"/><path d="M404.32 206.35s-11.84-6.41-15.14-19.8 1.95-17.62 1.95-17.62 8.4 11.79 11.48 18.82 1.71 18.6 1.71 18.6z" transform-origin="396.357px 187.64px"/><path d="M394.18 208.22s-10.42-3.17-19.85.33a123 123 0 0 0-15.15 6.64s5.15 2.91 16 2.66 19-9.63 19-9.63z" transform-origin="376.68px 212.385px"/></g></g><g class="F B C"><path d="M422.82,238.22s-14.16-23.45-41.75-48.11-62-34.06-76.48-20,3.5,19.75,9.31,9.46" transform-origin="360.95px 200.885px" class="H"/><path d="M377.27 181.46s-13.5-10.2-17.77-19.94.19-14.27 6.75-8.12 11.02 28.06 11.02 28.06z" transform-origin="367.545px 166.028px"/><path d="M372.72 193.13s-8.06-8.08-17.12-6.68-14.3 5.63-5 9.27 22.12-2.59 22.12-2.59z" transform-origin="359.213px 191.574px"/><g class="H"><path d="M304.76 204.7l38.68.29" transform-origin="324.1px 204.845px"/><path d="M304.17 216.47l43.87.31" transform-origin="326.105px 216.625px"/><path d="M309.13 230.41l52.87-.18" transform-origin="335.565px 230.32px"/></g><path d="M347.87 173.12a47 47 0 0 0-16.95-.61 21.11 21.11 0 0 0-12.92 7.37s24.48 1.94 29.87-6.76z" transform-origin="332.935px 176.039px"/><path d="M354,164.7s-4.45-10.14-13-13.87-7.12.82-7.12.82S341.86,166,354,164.7Z" transform-origin="343.895px 157.072px"/><g stroke-width="2" class="H"><path d="M392.45,161.72s-11.53,2.34-10.61,10.67,9.75,11,14.53,9.46,6.23-8.2,4-13.24-10-5.42-14.11.19" transform-origin="391.591px 171.992px"/><path d="M410.46 155.46L405 170.41" transform-origin="407.73px 162.935px"/><path d="M401.96 159.74l15.35 6.37" transform-origin="409.635px 162.925px"/></g></g><path d="M446.67 251.93l-1.1 8.13-3.91-7.3-11.04-66.45 5.01-.83 11.04 66.45z" transform-origin="438.645px 222.77px" class="B C E"/><path d="M437.26 185.44h2.77v67.36h-2.77z" stroke-width=".5" transform-origin="438.645px 219.12px" transform="rotate(350.57)" class="B C G"/><path d="M446.66 251.94l-4.99.83 3.9 7.29 1.09-8.12z" transform-origin="444.165px 256px" class="B C F"/><path d="M443.62 256.41l1.95 3.65.55-4.06-2.5.41z" transform-origin="444.87px 258.03px" class="B C D"/><path d="M431.89 178.45h0a2.54 2.54 0 0 0-2.09 2.92l.82 4.94 5-.83-.82-4.94a2.54 2.54 0 0 0-2.91-2.09z" transform-origin="432.693px 182.364px" class="B C E"/><path d="M431.89 178.45h0a2.54 2.54 0 0 0-2.09 2.92l.4 2.36 5-.83-.39-2.36a2.54 2.54 0 0 0-2.92-2.09z" transform-origin="432.483px 181.073px" class="B C D"/><path d="M87.74 262.58h156.49a10.67 10.67 0 0 1 10.67 10.67v99.08A11.67 11.67 0 0 1 243.22 384H88.74a11.67 11.67 0 0 1-11.67-11.67v-99.09a10.67 10.67 0 0 1 10.67-10.66z" transform-origin="165.985px 323.29px" class="B C E"/><g class="D"><use href="#C" transform-origin="139.195px 277.82px"/><use href="#D" transform-origin="107.125px 319.7px"/><use href="#E" transform-origin="148.14px 287.29px"/><path d="M122.6 274.53h10.01v6.58H122.6z" transform-origin="127.605px 277.82px"/><use href="#E" x="10.95" transform-origin="159.09px 287.29px"/><use href="#C" x="11.59" transform-origin="150.785px 277.82px"/><path d="M88.55 304.28h17.61v9.22H88.55z" transform-origin="97.355px 308.89px"/><use href="#E" x="-21.89" transform-origin="126.25px 287.29px"/><path d="M88.55 315.09h12.35v9.22H88.55z" transform-origin="94.725px 319.7px"/><use href="#C" x="23.19" transform-origin="162.385px 277.82px"/><use href="#E" x="-43.78" transform-origin="104.36px 287.29px"/><path d="M99.42 274.53h10.01v6.58H99.42z" transform-origin="104.425px 277.82px"/><use href="#C" x="-23.18" transform-origin="116.015px 277.82px"/><use href="#E" x="-32.83" transform-origin="115.31px 287.29px"/><use href="#E" x="-10.94" transform-origin="137.2px 287.29px"/><use href="#C" x="69.55" transform-origin="208.745px 277.82px"/><use href="#C" x="81.14" transform-origin="220.335px 277.82px"/><use href="#E" x="65.68" transform-origin="213.82px 287.29px"/><use href="#E" x="76.62" transform-origin="224.76px 287.29px"/><path d="M232.98 315.09h13.79v9.22h-13.79z" transform-origin="239.875px 319.7px"/><use href="#C" x="92.73" transform-origin="231.925px 277.82px"/><path d="M88.55 282.68h9.56v9.22h-9.56z" transform-origin="93.33px 287.29px"/><use href="#C" x="34.78" transform-origin="173.975px 277.82px"/><use href="#C" x="46.37" transform-origin="185.565px 277.82px"/><use href="#E" x="32.84" transform-origin="180.98px 287.29px"/><use href="#E" x="54.73" transform-origin="202.87px 287.29px"/><use href="#E" x="21.9" transform-origin="170.04px 287.29px"/><use href="#E" x="43.79" transform-origin="191.93px 287.29px"/><use href="#C" x="57.96" transform-origin="197.155px 277.82px"/><use href="#D" x="76.12" transform-origin="183.245px 319.7px"/><use href="#D" x="124.88" y="-10.81" transform-origin="232.005px 308.89px"/><use href="#D" x="114.01" y="-10.81" transform-origin="221.135px 308.89px"/><use href="#D" x="119.62" transform-origin="226.745px 319.7px"/><use href="#D" x="108.75" transform-origin="215.875px 319.7px"/><use href="#D" x="87" transform-origin="194.125px 319.7px"/><use href="#D" x="97.87" transform-origin="204.995px 319.7px"/><use href="#D" x="103.13" y="-10.81" transform-origin="210.255px 308.89px"/><use href="#D" x="92.26" y="-10.81" transform-origin="199.385px 308.89px"/><path d="M238.52 274.53h8.25v6.58h-8.25z" transform-origin="242.645px 277.82px"/><path d="M88.55 274.53h9.29v6.58h-9.29z" transform-origin="93.195px 277.82px"/><path d="M88.55 325.89h158.22v9.59H88.55z" transform-origin="167.66px 330.685px"/><path d="M231.03 282.68h15.74v9.22h-15.74z" transform-origin="238.9px 287.29px"/><path d="M238.23 304.28h8.53v9.22h-8.53z" transform-origin="242.495px 308.89px"/><path d="M235.61 302.64h-1.58v-9.16h-9.3v9.16h-1.58v-9.16h-9.29v9.16h-1.58v-9.16h-9.3v9.16h-1.58v-9.16h-9.29v9.16h-1.58v-9.16h-9.3v9.16h-1.58v-9.16h-9.29v9.16h-1.58v-9.16h-9.3v9.16h-1.58v-9.16h-9.29v9.16h-1.58v-9.16h-9.3v9.16h-1.58v-9.16h-9.29v9.16h-1.58v-9.16h-9.3v9.16h-1.58v-9.16h-9.29v9.16h-1.58v-9.16H88.55v9.22h158.21v-9.22h-11.15v9.16z" transform-origin="167.655px 298.09px"/><use href="#D" x="48.76" y="-10.81" transform-origin="155.885px 308.89px"/><use href="#D" x="81.38" y="-10.81" transform-origin="188.505px 308.89px"/><use href="#D" x="27.01" y="-10.81" transform-origin="134.135px 308.89px"/><use href="#D" x="32.63" transform-origin="139.755px 319.7px"/><use href="#D" x="37.88" y="-10.81" transform-origin="145.005px 308.89px"/><use href="#D" x="16.13" y="-10.81" transform-origin="123.255px 308.89px"/><use href="#D" x="10.88" transform-origin="118.005px 319.7px"/><use href="#D" x="21.75" transform-origin="128.875px 319.7px"/><use href="#D" x="59.63" y="-10.81" transform-origin="166.755px 308.89px"/><use href="#D" x="65.25" transform-origin="172.375px 319.7px"/><use href="#D" x="70.51" y="-10.81" transform-origin="177.635px 308.89px"/><use href="#D" x="43.5" transform-origin="150.625px 319.7px"/><use href="#D" x="54.37" transform-origin="161.495px 319.7px"/><use href="#D" x="5.26" y="-10.81" transform-origin="112.385px 308.89px"/><path d="M265.05 170.3H66c-4.18 0-7.23 5.44-6.14 11l14.55 74.39c.75 3.81 3.27 6.46 6.15 6.46h20.32v5.12h130.25v-5.12h19.36c2.88 0 5.4-2.65 6.15-6.46l14.55-74.39c1.09-5.56-1.96-11-6.14-11z" transform-origin="165.525px 218.785px" class="B C"/></g><path d="M242.53 255.58H88.48l-15.41-76.1h184.87l-15.41 76.1z" transform-origin="165.505px 217.53px" class="B C G"/><path d="M80.51 185.07l12.41 64.97H238.8l12.4-64.97H80.51z" transform-origin="165.855px 217.555px" class="E"/><g class="D"><path d="M178.14 223.34c-5.93-1.14-17.39 2.67-17.39 2.67s2.37 3.42 9.49 4.56 16.59-3.42 16.59-3.42-2.77-2.66-8.69-3.81z" transform-origin="173.79px 226.94px"/><path d="M211.72 242.37q-3.94-3.12-8-6.11l.22-.17s-.17-.1-.51-.26a17.43 17.43 0 0 0 .65-8.82c-.88-5.76-8.46-14.87-8.46-14.87s-2.55 3.3-1.27 10.14c1 5.39 6 10.91 8 13l-5.94-4.25c-1.29-.91-2.62-1.8-3.94-2.68s-2.74-1.64-4.1-2.47l-1.4-.81a18.25 18.25 0 0 0 .48-8.35c-.88-5.75-8.46-14.86-8.46-14.86s-2.55 3.3-1.27 10.13c.83 4.46 4.37 9 6.74 11.63l-4.44-2.43a161.48 161.48 0 0 0-15.25-7.13 12.73 12.73 0 0 0-1.46-5.81c-2.05-4-10.7-7.69-10.7-7.69s-1.49 3.55 1.14 8.17a8.77 8.77 0 0 0 1.48 1.87l-1.81-.57c-3.1-.9-6.24-1.64-9.4-2.28-2.4-.47-4.82-.89-7.24-1.23a12.3 12.3 0 0 0-3.21-3.87c-3-2.48-11-3.43-11-3.43s.17 2.89 3.87 5.72a9.79 9.79 0 0 0 1 .65c-.89 0-1.79-.09-2.69-.12a70.56 70.56 0 0 0-9.74.36 37.8 37.8 0 0 0-9.55 2.24 17.21 17.21 0 0 0-7.9 5.87 12.07 12.07 0 0 0-2 4.57 7.58 7.58 0 0 0 .69 5 5.09 5.09 0 0 0 1.93 2 5.6 5.6 0 0 0 2.69.63 9.71 9.71 0 0 0 4.82-1.57 11.7 11.7 0 0 0 2-1.45 5.15 5.15 0 0 0 1.43-2 3.31 3.31 0 0 0 0-2.38 4.9 4.9 0 0 0-1.38-1.92 4.66 4.66 0 0 1 1.16 2 3 3 0 0 1-.2 2.15 7 7 0 0 1-3.41 2.87 8.54 8.54 0 0 1-4.32.93 4 4 0 0 1-1.88-.65 3.91 3.91 0 0 1-1.32-1.36 6 6 0 0 1-.51-4 10.41 10.41 0 0 1 1.74-3.9 15.42 15.42 0 0 1 7.14-5.27 35.71 35.71 0 0 1 9.1-2.13 68.28 68.28 0 0 1 9.49-.35 114.94 114.94 0 0 1 18.94 2.25h.23a17.12 17.12 0 0 0-3.91 0c-4.67.55-12 6.42-12 6.42s2.73 2.15 8.27 1.3 11.17-6.83 11.17-6.83a7.12 7.12 0 0 0-.81-.32 100.93 100.93 0 0 1 6.27 1.6c3 .91 6 2 9 3.09 1 .38 2 .79 3 1.19a17.76 17.76 0 0 0-3.37 0c-4.69.41-12.18 6.05-12.18 6.05s2.66 2.23 8.23 1.55c4.63-.56 9.43-4.67 10.91-6q5.46 2.42 10.73 5.21c2.8 1.47 5.55 3.05 8.28 4.65l4.05 2.47 4.09 2.42 4.14 2.53a23.26 23.26 0 0 0-5.23-.42c-6 .19-16.3 6.4-16.3 6.4s3.11 2.82 10.31 2.37c5.79-.35 12.19-4.63 14.47-6.3q4.38 2.78 8.7 5.63z" transform-origin="153.563px 221.154px"/><path d="M137.05 231.66h-40.7a.83.83 0 0 0-.84.82.83.83 0 0 0 .84.81h40.7a.82.82 0 0 0 .84-.81.83.83 0 0 0-.84-.82z" transform-origin="116.7px 232.475px"/><path d="M137.05 236.08H97.46a.83.83 0 0 0-.84.81.83.83 0 0 0 .84.82h39.59a.83.83 0 0 0 .84-.82.82.82 0 0 0-.84-.81z" transform-origin="117.255px 236.895px"/><path d="M137.05 240.26H98.52a.82.82 0 1 0 0 1.63h38.53a.83.83 0 0 0 .84-.82.82.82 0 0 0-.84-.81z" transform-origin="117.75px 241.075px"/><path d="M137.05 244.22H99.51a.83.83 0 0 0-.84.81.83.83 0 0 0 .84.82h37.54a.83.83 0 0 0 .84-.82.82.82 0 0 0-.84-.81z" transform-origin="118.28px 245.035px"/></g><g class="G"><path d="M218.73,201.72l-6.22,45.6h18.75l8.66-45.6Zm1.83,43.65h-5.33l.75-5.18h5.4Zm1.67-10.51h-5.49l.79-5.49h5.57ZM224,223.71h-5.66l.84-5.83h5.74Zm1.87-11.85H220l.89-6.21h5.93Zm3.3,33.51h-5.33l.87-5.18h5.41Zm1.92-10.51h-5.48l.92-5.49h5.57Zm2-11.15h-5.65l1-5.83h5.74Zm2.17-11.85h-5.83l1-6.21h5.93Z" transform-origin="226.215px 224.52px"/><path d="M121.53 197.22h93.16l1.16-9.33h-95.32l1 9.33z" transform-origin="168.19px 192.555px"/></g><g class="B C"><path d="M341.73 377.53l65.51 38.28 51.26-99.47-61.06-34.7-55.71 95.89z" transform-origin="400.115px 348.725px" class="D"/><path d="M344.28,371.12l-2.55,6.41,65.5,37.05a13.78,13.78,0,0,1,3.73-6.4Z" transform-origin="376.345px 392.85px" class="E"/><path d="M397.19 277.6l-52.91 93.52 67.67 38 50.26-94.79-65.02-36.73z" transform-origin="403.245px 343.36px" class="D"/><g class="F H"><path d="M343.95 374.48l18.35 9.13" transform-origin="353.125px 379.045px"/><path d="M342.74 376.19l21.46 10.97" transform-origin="353.47px 381.675px"/><path d="M408.92 410.33l-13.72-8.35" transform-origin="402.06px 406.155px"/><path d="M408.07 412.46l-22.24-12.94" transform-origin="396.95px 405.99px"/></g></g><g class="G"><path d="M382.11 343.34a49.61 49.61 0 0 0 2.05-9.89 74.63 74.63 0 0 0 .42-8.18 20.23 20.23 0 0 0-6.07 8.11c-2.58 5.72 3.6 9.96 3.6 9.96z" transform-origin="381.23px 334.305px"/><path d="M383.46 355.25a91.22 91.22 0 0 1-7.08-6.73s-1.47 8 2.61 11.87 11.85 4.72 11.85 4.72-3.52-6.61-7.38-9.86z" transform-origin="383.481px 356.815px"/><path d="M363 357.45a181.74 181.74 0 0 1 17.57-11.76c.19.83 1.15 4.08 5.39 7.4 4.92 3.85 13.74 4.89 13.74 4.89s-4.72-4.49-8.78-7.53a39.15 39.15 0 0 0-10.13-4.89c3.63-2.12 6.44-3.6 8-4.38a17.14 17.14 0 0 0 8.33 2.11c5.33-.16 13.33-4.75 13.33-4.75s-9.35-2.43-14.25-1.14c-2.51.67-4.75 1.43-6.35 2a.58.58 0 0 0-.26.05l-.48.23-1.39.55a33.08 33.08 0 0 0 8.41-8.16 16.26 16.26 0 0 0 2.84-11.59 86.36 86.36 0 0 0-7.74 8.58c-3 4-5.56 11.53-5.91 12.58-2.1 1.14-4.88 2.7-8.09 4.67a22.85 22.85 0 0 0-.79-6c-.93-3.75-.5-11.51-.5-11.51s-3.44 4.91-4.59 9.12c-1.09 4 5.22 8 5.81 8.41-2.32 1.42-4.88 3.06-7.58 4.9a8.43 8.43 0 0 0 .55-3.85c-.36-5.64-.89-10.24-.89-10.24s-4.05 5.55-4.78 9.76a8.26 8.26 0 0 0 1.86 6.6 163.15 163.15 0 0 0-13.18 10.5.6.6 0 0 0-.05.83h0a.6.6 0 0 0 .8 0c2.77-2.46 5.57-4.74 8.32-6.85a70.6 70.6 0 0 0 5.93 5.61c2.78 2.23 10.11 2.25 10.11 2.25s-6.86-6.1-9.83-7.7a8.67 8.67 0 0 0-5.42-.69zm24.46-17l.09.07-.86.44z" transform-origin="381.698px 343.16px"/></g><g class="F I J"><path d="M406.27 300.18l34.29 18.78" transform-origin="423.415px 309.57px"/><path d="M395.48 304.27l48.41 26.51" transform-origin="419.685px 317.525px"/></g><g class="G I J"><path d="M458.09 322.1l4.12-7.77-8.72-4.92 4.6 12.69z" transform-origin="457.85px 315.755px"/><path d="M411.95 409.12l2.93-5.52-11.58.66 8.65 4.86z" transform-origin="409.09px 406.36px"/></g><path d="M282.65 302.65a5.81 5.81 0 0 0-5.87-.89c-5.7 2.3-17 7.26-17.61 10.61-.8 4.48 7.12 31.12 9 40.09s6.33 15 17.41 17.41 25.59-3.69 31.13-13.71-2-19.15-7.78-28.17c-4.6-7.14-20.05-20.21-26.28-25.34z" transform-origin="288.879px 335.864px" class="D"/><g class="C H"><path d="M333.54,424.23S323,386.85,323,364.85s-3.67-38.08-8.18-45.13-8.74-9.88-10.72-9.88-.56,2.54,2.26,6.21,5.36,5.64,6.49,10.16,1.12,10.15-.29,9.59-3.66-11.85-5.64-16.08-6.77-9.59-9.59-12.13-9-10.16-11.84-8.18-1.13,4.79.56,5.92,8.46,7.9,11.56,12.13,5.08,15,3.39,15.23-6.77-15.51-9.59-18.9-14.1-12.69-16.64-13-2.82,3.67-.57,5.64S284,316.9,286.58,322s3.67,14.39,1.41,12.13-5.92-11.56-9-14.66-12.41-13-14.67-11.85-1.69,4,.28,5.92,9.59,12.7,11.57,18.34,4.23,21.43,3.1,19.18-4.8-13.82-6.77-18.62-5.92-7.05-6.49-4.79.57,3.38,2,8.46,1.41,18.61,5.64,26.23,20.59,28.21,22.85,33.85,8.41,31.4,8.41,31.4" transform-origin="298.199px 363.338px" class="B E"/><g stroke="#fff" class="F"><path d="M99.65 309.94l-1.37 2" transform-origin="98.965px 310.94px"/><path d="M107.15,301.31a51.27,51.27,0,0,0-5.53,6" transform-origin="104.385px 304.31px"/><path d="M99,305.11a78.25,78.25,0,0,0-5.32,8.64" transform-origin="96.34px 309.43px"/><path d="M149.58 320.88l-1.36 2" transform-origin="148.9px 321.88px"/><path d="M157.08,312.25a51.8,51.8,0,0,0-5.52,6" transform-origin="154.32px 315.25px"/><path d="M149,316.05a76.65,76.65,0,0,0-5.32,8.64" transform-origin="146.34px 320.37px"/></g><g class="B"><path d="M79.54 419.56s11.32-32.71 11.32-54.71 3.67-38.08 8.18-45.13 8.75-9.88 10.72-9.88.57 2.54-2.25 6.21-5.36 5.64-6.49 10.16-1.13 10.15.28 9.59 3.7-11.8 5.64-16.08 6.77-9.59 9.59-12.13 9-10.16 11.85-8.18 1.13 4.79-.56 5.92-8.47 7.9-11.57 12.13-5.08 15-3.38 15.23 6.77-15.51 9.59-18.9 14.1-12.69 16.64-13 2.82 3.67.56 5.64-9.87 10.47-12.41 15.57-3.66 14.39-1.41 12.13 5.93-11.56 9-14.66 12.41-13 14.67-11.85 1.69 4-.29 5.92-9.59 12.7-11.56 18.34-4.23 21.43-3.1 19.18 4.79-13.82 6.77-18.62 5.92-7.05 6.48-4.79-.56 3.38-2 8.46-1.41 18.61-5.64 26.23-20.59 28.21-22.85 33.85-9.17 26.74-9.17 26.74" transform-origin="115.256px 361.008px" class="E"/><g class="F"><path d="M160.3,155.45l.61-.8" transform-origin="160.605px 155.05px"/><path d="M162.14,153.09a127,127,0,0,1,186.35-13.47" stroke-dasharray="1.99006, 1.99006" transform-origin="255.315px 129.128px"/><path d="M349.21,140.31l.72.69" transform-origin="349.57px 140.655px"/></g></g></g><path d="M167.77 158.06l-13.6 6.23 1.4-14.89 12.2 8.66z" transform-origin="160.97px 156.845px" class="D"/><path d="M373.33 268.27v38.24" stroke-dasharray="2, 2" transform-origin="373.33px 287.39px" class="B C F H"/><path d="M365.85 270.45l7.48-12.95 7.48 12.95h-14.96z" transform-origin="373.33px 263.975px" class="D"/><defs ><path id="B" d="M399.93 114.08c-26.79-22.14-60.83-33-100-20.68-38.71 12.14-61.68 48-96.05 67.08-36.57 20.31-81.24 18.23-120.1 32.86-27.47 10.34-47.61 32.66-54.43 61.3C16 310.67 41.23 371.42 91.72 399.77c31.48 17.68 69.68 20.88 104 9.92 26.32-8.42 49.94-23.87 76.2-32.74 45.61-15.41 96.47-9.15 140.6-30.21 46.71-22.28 56.64-69.66 50.39-115-5.73-41.19-28.26-88.95-62.98-117.66z"/><path id="C" d="M134.19 274.53h10.01v6.58h-10.01z"/><path id="D" d="M102.48 315.09h9.29v9.22h-9.29z"/><path id="E" d="M143.46 282.68h9.36v9.22h-9.36z"/></defs></svg>