<svg xmlns="http://www.w3.org/2000/svg" height="100%" viewBox="0 0 800 572.62" width="300" xmlns:v="https://vecta.io/nano"><path d="M635.5 63.362l-3-1.936c-28.805-18.422-59.679-33.388-91.985-44.589l-7.491 103.335h-47.487V1.753L476.523.001v120.171H420.09c-31.067 0-60.861-12.341-82.828-34.309s-34.309-51.762-34.309-82.828h0a292.9 292.9 0 0 0-9.026 2.1v115.037h-45.963l-7.136-98.536c-33.199 12.732-64.716 29.476-93.851 49.858l-1.5 1.042-7.514 5.418v394.224h135.463l-2.394-33.158-13.172-182.056h265.256L509.944 439.02l-2.394 33.158h133.963V67.348q-2.99-2.027-6.013-3.986zM293.928 226.898h-38.244l-7.067-97.7h45.311zm182.595 0H412.29v-1.936a7.08 7.08 0 0 0-7.09-7.078h-27.924c-1.877-.001-3.678.745-5.006 2.072s-2.073 3.128-2.072 5.006v1.936h-67.245v-97.7h173.57zm9.014 0v-97.7h46.834l-7.067 97.7z" fill="#e6e6e6"/><path d="M0 497.423a316.83 316.83 0 0 0 28.591 33.158l742.819 1.146a316.84 316.84 0 0 0 28.591-33.159z" fill="#f2f2f2"/><path d="M506.078 391.249v98.163a4.72 4.72 0 0 0 4.718 4.718h145.462c2.605-.002 4.716-2.113 4.718-4.718v-98.163c-.006-2.602-2.116-4.71-4.718-4.713H510.796c-2.602.003-4.712 2.111-4.718 4.713z" fill="#3f3d56"/><path d="M509.491 392.469v95.73c.003 1.391 1.13 2.518 2.521 2.521h143.04c1.391-.003 2.518-1.13 2.521-2.521v-95.73a2.53 2.53 0 0 0-2.521-2.527h-143.04a2.53 2.53 0 0 0-2.521 2.527z"/><path d="M503.036 508.555a2.83 2.83 0 0 0 2.226 1.07h155.761c.862-.002 1.678-.391 2.221-1.061s.756-1.549.579-2.393l-2.418-11.485a2.87 2.87 0 0 0-1.785-2.082c-.324-.127-.669-.192-1.017-.192H507.67c-.348 0-.693.065-1.017.192a2.87 2.87 0 0 0-1.785 2.082l-2.418 11.485c-.174.844.041 1.721.585 2.389z" fill="#2f2e41"/><g fill="#3f3d56"><rect width="4.797" height="2.878" rx=".488" transform="matrix(-1 0 0 -1 513.577 497.354)"/><rect width="4.797" height="2.878" rx=".488" transform="matrix(-1 0 0 -1 513.691 502.151)"/><path d="M610.998 507.909h-37.261a.56.56 0 0 1-.559-.559v-1.76a.56.56 0 0 1 .559-.559h37.261a.56.56 0 0 1 .559.559v1.76a.56.56 0 0 1-.559.559z"/></g><g fill="#fff"><rect width="6.833" height="3.576" rx="1.561" x="529.215" y="410.887"/><rect width="6.833" height="3.576" rx="1.561" x="566.467" y="410.887"/><rect width="6.833" height="3.576" rx="1.561" x="577.021" y="410.887"/><rect width="23.819" height="3.576" rx="1.561" x="539.348" y="410.588"/><rect width="23.819" height="3.576" rx="1.561" x="589.016" y="410.588"/><rect width="6.833" height="3.576" rx="1.561" x="539.149" y="418.957"/><rect width="6.833" height="3.576" rx="1.561" x="576.4" y="418.957"/><rect width="6.833" height="3.576" rx="1.561" x="586.955" y="418.957"/><rect width="23.819" height="3.576" rx="1.561" x="549.282" y="418.659"/><rect width="23.819" height="3.576" rx="1.561" x="598.949" y="418.659"/><rect width="6.833" height="3.576" rx="1.561" x="549.083" y="427.029"/><rect width="6.833" height="3.576" rx="1.561" x="586.333" y="427.029"/><rect width="6.833" height="3.576" rx="1.561" x="596.888" y="427.029"/><rect width="23.819" height="3.576" rx="1.561" x="559.215" y="426.73"/><rect width="23.819" height="3.576" rx="1.561" x="608.883" y="426.73"/><rect width="6.833" height="3.576" rx="1.561" x="559.016" y="435.099"/><rect width="6.833" height="3.576" rx="1.561" x="596.267" y="435.099"/><rect width="6.833" height="3.576" rx="1.561" x="606.821" y="435.099"/><rect width="23.819" height="3.576" rx="1.561" x="569.149" y="434.801"/><rect width="6.833" height="3.576" rx="1.561" x="566.467" y="467.193"/><rect width="6.833" height="3.576" rx="1.561" x="577.021" y="467.193"/><rect width="23.819" height="3.576" rx="1.561" x="589.016" y="467.491"/><rect width="6.833" height="3.576" rx="1.561" x="529.215" y="467.193"/><rect width="23.819" height="3.576" rx="1.561" x="539.348" y="467.491"/><rect width="6.833" height="3.576" rx="1.561" x="539.149" y="459.122"/><rect width="6.833" height="3.576" rx="1.561" x="576.4" y="459.122"/><rect width="6.833" height="3.576" rx="1.561" x="586.955" y="459.122"/><rect width="23.819" height="3.576" rx="1.561" x="549.282" y="459.42"/><rect width="6.833" height="3.576" rx="1.561" x="549.083" y="451.051"/><rect width="6.833" height="3.576" rx="1.561" x="586.333" y="451.051"/><rect width="6.833" height="3.576" rx="1.561" x="596.888" y="451.051"/><rect width="23.819" height="3.576" rx="1.561" x="559.215" y="451.349"/><rect width="6.833" height="3.576" rx="1.561" x="559.016" y="442.98"/><rect width="6.833" height="3.576" rx="1.561" x="596.267" y="442.98"/><rect width="6.833" height="3.576" rx="1.561" x="606.821" y="442.98"/><rect width="23.819" height="3.576" rx="1.561" x="569.149" y="443.278"/></g><path d="M158.184 386.54v117.469h82.295V386.54a3.95 3.95 0 0 0-2.783-3.78c-.381-.126-.779-.187-1.18-.183h-74.358c-1.053-.002-2.063.415-2.808 1.158s-1.165 1.752-1.166 2.805zm32.12 40.363c0-3.139 1.674-6.039 4.392-7.608s6.067-1.569 8.785 0 4.393 4.469 4.392 7.608v13.63c0 3.139-1.674 6.039-4.392 7.608s-6.067 1.569-8.785 0-4.393-4.469-4.392-7.608z" fill="#2f2e41"/><path d="M157.932 500.252v11.328a2.23 2.23 0 0 0 2.211 2.222h78.378a2.22 2.22 0 0 0 2.211-2.222v-11.328zM28.723 209.558V424.04a10.32 10.32 0 0 0 10.308 10.308h317.842a10.32 10.32 0 0 0 10.308-10.308V209.558c-.012-5.687-4.621-10.292-10.308-10.3H39.031c-5.687.007-10.296 4.613-10.308 10.3z" fill="#3f3d56"/><path d="M36.179 212.227v209.167a5.52 5.52 0 0 0 5.509 5.509h312.537a5.52 5.52 0 0 0 5.509-5.509V212.227a5.52 5.52 0 0 0-5.509-5.521H41.688a5.52 5.52 0 0 0-5.509 5.521z" fill="#fff"/><path d="M94.183 513.035c.645.808 1.624 1.276 2.657 1.271h185.937a3.42 3.42 0 0 0 3.344-4.123l-2.886-13.71a3.43 3.43 0 0 0-2.13-2.485c-.387-.152-.799-.229-1.214-.229H99.713c-.415 0-.827.077-1.214.229-1.085.414-1.887 1.349-2.13 2.485l-2.886 13.71a3.42 3.42 0 0 0 .7 2.852z" fill="#2f2e41"/><g fill="#3f3d56"><path d="M344.082 235.52H51.643c-.642 0-1.163-.521-1.163-1.163s.521-1.163 1.163-1.163h292.44c.642 0 1.163.521 1.163 1.163s-.521 1.163-1.163 1.163z"/><ellipse cx="71.549" cy="220.288" rx="6.815" ry="6.967"/><ellipse cx="95.093" cy="220.288" rx="6.815" ry="6.967"/><ellipse cx="118.637" cy="220.288" rx="6.815" ry="6.967"/><path d="M515.894 493.654h138.582l2.729 9.163H515.894zm-185.989-278.61h-16.723c-.685.019-1.23.58-1.23 1.266s.545 1.246 1.23 1.265h16.722c.461.013.892-.225 1.126-.622s.234-.89 0-1.286-.665-.635-1.126-.622zm-.001 4.753h-16.722c-.452 0-.87.241-1.096.633s-.226.874 0 1.266.644.633 1.096.633h16.722c.461.013.892-.225 1.126-.622s.234-.89 0-1.286-.665-.635-1.126-.622zm.001 4.754h-16.723c-.685.019-1.23.58-1.23 1.265s.545 1.246 1.23 1.265h16.722c.461.013.892-.225 1.126-.622s.234-.89 0-1.286-.665-.635-1.126-.622z"/></g><path d="M712.563 505.253a6.47 6.47 0 0 0 6.233 4.366l26.706-.687a6.38 6.38 0 0 0 6.029-4.695l3.779-40.411c1.341.607 2.8.907 4.272.878a9.74 9.74 0 0 0 9.491-9.981 9.74 9.74 0 0 0-9.981-9.491 8.25 8.25 0 0 0-1.75.182 6.6 6.6 0 0 0-4.913-2.12l-41.079 1.061a5.89 5.89 0 0 0-1.013.126c-1.822.34-3.409 1.452-4.35 3.049s-1.146 3.523-.562 5.282zm43.522-44.17l2.689-9.63c.306-1.112.313-2.285.021-3.4.13 0 .246-.062.376-.062a6.97 6.97 0 0 1 7.128 6.801 6.97 6.97 0 0 1-6.801 7.128c-1.192.037-2.372-.251-3.412-.835z" fill="#e6e6e6"/><path d="M710.338 444.485c.875 5 10.715 8.522 22.546 7.911 10.88-.5 19.776-4.322 21.406-8.849a6.07 6.07 0 0 0-1.859-.248l-41.079 1.061a5.9 5.9 0 0 0-1.013.126z" fill="#d6d6e3"/><path d="M431.055 415.945s-88.873 10.718-80.387 0c3.073-3.877 3.921-15.363 3.751-28.448-.054-3.975-.2-8.092-.4-12.192-.983-19.65-3.349-38.854-3.349-38.854s77.708-36.621 68.776-7.592c-3.573 11.728-2.4 28.2.313 43.659.795 4.511 1.715 8.932 2.68 13.13 2.353 10.239 5.229 20.352 8.616 30.297z" fill="#ed9da0"/><path d="M262.367 572.584v-.75l156.862-1.706 95.572-.893h.268l-.1 1.322.134-1.322h.17v-.152l1.224-12.013.464-4.546.143-1.42.125-1.188 5.52-18.409 5.52-18.382 4.645-15.479 7.092-23.652s-4.019-9.379-6.252-12.058-11-21.856-11-21.856-12.523-17.292-20.856-19.382c-3.492-.893-10.388-2.081-17.712-3.573-2.742-.554-23.758-6.624-25.009-7.467-6.565-4.814-23.018-5.359-23.652-5.359h0c-.002-.021-.002-.042 0-.063v-.08c.023-.375.023-.75 0-1.125.01-.418-.017-.836-.08-1.25.009-.152-.012-.304-.063-.447a12.98 12.98 0 0 0-.179-1.018c-.027-.159-.063-.317-.107-.473a15.38 15.38 0 0 0-1.117-3.117c-.063-.143-.143-.295-.214-.438-.438-.825-.946-1.611-1.518-2.349a8.11 8.11 0 0 0-.375-.464c-.732-.863-1.546-1.652-2.43-2.358-.241-.188-.491-.384-.75-.563a4.17 4.17 0 0 0-.456-.322l-.795-.518-.741-.429c-.652-.357-1.34-.706-2.09-1.036-.232-.107-.482-.205-.732-.3l-.974-.375h-.054l-.67-.268c-.509-.17-1.027-.322-1.572-.473l-.831-.214-.893-.205-.893-.188c-.893-.179-1.849-.339-2.849-.464l-1.018-.125-1.045-.107-1.081-.089-1.536-.089-1.786-.063a111.39 111.39 0 0 0-23.448 2.494 64.55 64.55 0 0 0-16.3-1.5h-.777l-.893.054h-.574l-1.152.107c-.39.018-.778.063-1.161.134l-1.17.161-.589.1-1.786.33q-.295.054-.589.134a30.85 30.85 0 0 0-2.322.607 18.93 18.93 0 0 0-1.152.366 5.15 5.15 0 0 0-.572.2l-.572.205-.563.223-.67.268c-.339.143-.67.295-1 .456a6.28 6.28 0 0 0-.554.268c-.179.098-.366.179-.536.277-2.02 1.043-3.886 2.36-5.547 3.912l-.456.438-.447.456c-.152.152-.295.313-.438.473a21.27 21.27 0 0 0-1.626 2.01 13.17 13.17 0 0 0-.411.572c-.567.836-1.08 1.707-1.536 2.608-.116.214-.223.438-.33.652-.729 1.509-1.326 3.078-1.786 4.689q-.25.893-.456 1.786s-18.909 8.343-34.593 14.381c-4.171 1.608-8.1 3.064-11.388 4.162l-2.68.893a23.85 23.85 0 0 1-5.582 1.286c-.898.015-1.794.098-2.68.25-7.208 1.17-19.561 6.252-20.91 11.353-.109.407-.14.831-.089 1.25l-29.7 92.624c-1.3 6.806-4.2 19.766-5.627 25.009l-3.671 12.951c-.016.108-.046.213-.089.313l40.042-.393v.75h.125z"/><path d="M435.575 403.065c-25.9 4.77-74.671 3.742-95.75 3.019 7.726-27.689 45.4-18.275 45.4-18.275 46.635-9.307 50.207 10.004 50.35 15.256z"/><path d="M573.073 525.138s30.511-4.689 31.11 8.709-15.559 22.758-15.559 22.758z" fill="#ed9da0"/><path d="M595.697 551.933s-.795 1.893-2.26 4.636c-2.216 4.219-4.914 8.166-8.039 11.763l-.241.259h-1.447l-51.573.473h-1.233l-.152-.179-10-11.87-3.769-4.475-.152-.188-.321-.375-.179-.214-.232-.277-7.333-8.7 2.68-11.165 4.564-18.811.116-.456.893-3.573.634-2.68 2.126-8.735 7.288-30.056 12.951 6.7 13.655 24.123 7.333 12.951h4.017c.759 0 2.5 1.465 4.252 3.153a71.55 71.55 0 0 1 1.786 1.786c1.59 1.643 2.849 3.055 2.849 3.055s6.511.143 8.262 5.27a6.25 6.25 0 0 1 .223.759c.581 2.015 1.337 3.976 2.26 5.859 1.152 2.51 2.6 5.359 4.064 8.208a443.54 443.54 0 0 0 6.511 12l.125.223z"/><path d="M262.367 572.585v-.75l156.862-1.706 95.572-.893h.268v-.152l.893-12 .384-5.359 1.465-20.2 1.152-15.988v-.393c.053-.737.019-1.477-.1-2.206a.27.27 0 0 0 0-.089 9.28 9.28 0 0 0-1.786-4.144c-1.999-2.564-5.18-3.915-8.414-3.573-10.817 1.108-21.74 1.992-32.673 2.68l-4.466.277c-70.509 4.189-140.383.795-178.192-1.786l-2.68-.2-16.238-1.259c-4.803-.405-9.137 2.884-10.039 7.619-.09.484-.144.973-.161 1.465l-.607 19.793-.831 25.072-.393 12.826v1z" fill="gray"/><circle cx="379.201" cy="325.961" fill="#ed9da0" r="51.737"/><path d="M449.129 289.823c-.81-.866-1.938-1.365-3.123-1.382l.778-2.16a4.1 4.1 0 0 0-4.6-5.457l-2.833.546.267-1.893a4.1 4.1 0 0 0-5.492-4.435c-1.23.484-2.613.386-3.762-.267-1.153-.633-1.969-1.742-2.229-3.031l-.987-4.76-.1-.255c-4.807-8.012-14.049-13.84-25.359-15.977-10.067-1.916-20.389-.94-30.34-.023-3.948.372-8.406.79-12.122 3.065-3.158 1.951-5.829 5.852-5.283 9.788-9.811-3.007-20.331 3-25.544 10.566-6.177 9.01-7.187 20.3-7.35 29.12-.441 20.877 3.867 37.957 12.772 50.775.65.929.813 2.868 2.1 3.518l-.267-.43c1.44.72 2.9 1.881 2.357 3.123-1.567 3.576 8.848 11.483 16.186 14.1 13.388 4.772 31.187 4.366 43.7 2.647l.441-2.961c4.517-.615 7.7-1.788 8.592-3.623 1.579-1.347 2.926-2.554 4.1-3.669l.012-.012c.023-.023.07-.058.093-.081 5.655-5.422 6.967-8.511 7.559-13.213.569-4.61-.441-9.289-1.475-13.5 21.759 3.367-8.569-23.176 11.7-28.308a6.31 6.31 0 0 1 .708-.174l1.753-.441a30.7 30.7 0 0 0 7.8-3.332c5.666-3.448 7.536-8.023 10.462-13.178a3.98 3.98 0 0 0-.522-4.679z" fill="#090814"/><path d="M153.957 278.325h87.048c3.795 0 6.872 3.077 6.872 6.872s-3.077 6.872-6.872 6.872h-87.048c-3.795 0-6.872-3.077-6.872-6.872s3.077-6.872 6.872-6.872z"/><g fill="#e6e6e6"><use href="#B"/><use href="#B" y="32.071"/></g><defs ><path id="B" d="M131.05 310.395h132.863c3.795 0 6.872 3.077 6.872 6.872s-3.077 6.872-6.872 6.872H131.05c-3.795 0-6.872-3.077-6.872-6.872s3.077-6.872 6.872-6.872z"/></defs></svg>